<mxfile host="app.diagrams.net" agent="Mozilla/5.0 (Windows NT 10.0; Win64; x64) AppleWebKit/537.36 (KHTML, like Gecko) Chrome/126.0.0.0 Safari/537.36 Edg/126.0.0.0" version="24.9.2">
  <diagram name="第 1 页" id="9G1bqk7S4KJKX10EmWWL">
    <mxGraphModel dx="1088" dy="1297" grid="1" gridSize="10" guides="1" tooltips="1" connect="1" arrows="1" fold="1" page="1" pageScale="1" pageWidth="827" pageHeight="1169" math="0" shadow="0">
      <root>
        <mxCell id="0" />
        <mxCell id="1" parent="0" />
        <mxCell id="KPoirZavF00LHYwzV-F3-5" value="" style="edgeStyle=orthogonalEdgeStyle;rounded=0;orthogonalLoop=1;jettySize=auto;html=1;" edge="1" parent="1" source="KPoirZavF00LHYwzV-F3-2" target="KPoirZavF00LHYwzV-F3-4">
          <mxGeometry relative="1" as="geometry" />
        </mxCell>
        <mxCell id="KPoirZavF00LHYwzV-F3-6" value="选择感兴趣的项目" style="edgeLabel;html=1;align=center;verticalAlign=middle;resizable=0;points=[];" vertex="1" connectable="0" parent="KPoirZavF00LHYwzV-F3-5">
          <mxGeometry x="-0.0913" y="-3" relative="1" as="geometry">
            <mxPoint y="1" as="offset" />
          </mxGeometry>
        </mxCell>
        <mxCell id="KPoirZavF00LHYwzV-F3-2" value="进入项目广场" style="rounded=0;whiteSpace=wrap;html=1;" vertex="1" parent="1">
          <mxGeometry x="294" y="40" width="120" height="60" as="geometry" />
        </mxCell>
        <mxCell id="KPoirZavF00LHYwzV-F3-8" value="" style="edgeStyle=orthogonalEdgeStyle;rounded=0;orthogonalLoop=1;jettySize=auto;html=1;" edge="1" parent="1" source="KPoirZavF00LHYwzV-F3-4" target="KPoirZavF00LHYwzV-F3-7">
          <mxGeometry relative="1" as="geometry" />
        </mxCell>
        <mxCell id="KPoirZavF00LHYwzV-F3-4" value="进入项目详情" style="rounded=0;whiteSpace=wrap;html=1;" vertex="1" parent="1">
          <mxGeometry x="294" y="180" width="120" height="60" as="geometry" />
        </mxCell>
        <mxCell id="KPoirZavF00LHYwzV-F3-10" value="" style="edgeStyle=orthogonalEdgeStyle;rounded=0;orthogonalLoop=1;jettySize=auto;html=1;" edge="1" parent="1" source="KPoirZavF00LHYwzV-F3-7" target="KPoirZavF00LHYwzV-F3-9">
          <mxGeometry relative="1" as="geometry" />
        </mxCell>
        <mxCell id="KPoirZavF00LHYwzV-F3-13" value="组员" style="edgeLabel;html=1;align=center;verticalAlign=middle;resizable=0;points=[];" vertex="1" connectable="0" parent="KPoirZavF00LHYwzV-F3-10">
          <mxGeometry x="0.1345" y="-1" relative="1" as="geometry">
            <mxPoint as="offset" />
          </mxGeometry>
        </mxCell>
        <mxCell id="KPoirZavF00LHYwzV-F3-12" value="" style="edgeStyle=orthogonalEdgeStyle;rounded=0;orthogonalLoop=1;jettySize=auto;html=1;" edge="1" parent="1" source="KPoirZavF00LHYwzV-F3-7" target="KPoirZavF00LHYwzV-F3-11">
          <mxGeometry relative="1" as="geometry" />
        </mxCell>
        <mxCell id="KPoirZavF00LHYwzV-F3-14" value="组长" style="edgeLabel;html=1;align=center;verticalAlign=middle;resizable=0;points=[];" vertex="1" connectable="0" parent="KPoirZavF00LHYwzV-F3-12">
          <mxGeometry x="0.1216" y="1" relative="1" as="geometry">
            <mxPoint as="offset" />
          </mxGeometry>
        </mxCell>
        <mxCell id="KPoirZavF00LHYwzV-F3-7" value="是否为组长" style="rhombus;whiteSpace=wrap;html=1;rounded=0;" vertex="1" parent="1">
          <mxGeometry x="287" y="300" width="134" height="80" as="geometry" />
        </mxCell>
        <mxCell id="KPoirZavF00LHYwzV-F3-16" value="" style="edgeStyle=orthogonalEdgeStyle;rounded=0;orthogonalLoop=1;jettySize=auto;html=1;" edge="1" parent="1" source="KPoirZavF00LHYwzV-F3-9" target="KPoirZavF00LHYwzV-F3-15">
          <mxGeometry relative="1" as="geometry" />
        </mxCell>
        <mxCell id="KPoirZavF00LHYwzV-F3-9" value="加入小组" style="whiteSpace=wrap;html=1;rounded=0;" vertex="1" parent="1">
          <mxGeometry x="140" y="410" width="120" height="60" as="geometry" />
        </mxCell>
        <mxCell id="KPoirZavF00LHYwzV-F3-18" value="" style="edgeStyle=orthogonalEdgeStyle;rounded=0;orthogonalLoop=1;jettySize=auto;html=1;" edge="1" parent="1" source="KPoirZavF00LHYwzV-F3-11" target="KPoirZavF00LHYwzV-F3-17">
          <mxGeometry relative="1" as="geometry" />
        </mxCell>
        <mxCell id="KPoirZavF00LHYwzV-F3-11" value="创建小组" style="whiteSpace=wrap;html=1;rounded=0;" vertex="1" parent="1">
          <mxGeometry x="460" y="410" width="120" height="60" as="geometry" />
        </mxCell>
        <mxCell id="KPoirZavF00LHYwzV-F3-22" value="" style="edgeStyle=orthogonalEdgeStyle;rounded=0;orthogonalLoop=1;jettySize=auto;html=1;" edge="1" parent="1" source="KPoirZavF00LHYwzV-F3-15" target="KPoirZavF00LHYwzV-F3-21">
          <mxGeometry relative="1" as="geometry">
            <Array as="points">
              <mxPoint x="200" y="700" />
            </Array>
          </mxGeometry>
        </mxCell>
        <mxCell id="KPoirZavF00LHYwzV-F3-15" value="小组ID、小组职位" style="shape=parallelogram;perimeter=parallelogramPerimeter;whiteSpace=wrap;html=1;fixedSize=1;rounded=0;" vertex="1" parent="1">
          <mxGeometry x="135" y="540" width="130" height="60" as="geometry" />
        </mxCell>
        <mxCell id="KPoirZavF00LHYwzV-F3-23" style="edgeStyle=orthogonalEdgeStyle;rounded=0;orthogonalLoop=1;jettySize=auto;html=1;exitX=0.5;exitY=1;exitDx=0;exitDy=0;entryX=1;entryY=0.5;entryDx=0;entryDy=0;" edge="1" parent="1" source="KPoirZavF00LHYwzV-F3-17" target="KPoirZavF00LHYwzV-F3-21">
          <mxGeometry relative="1" as="geometry" />
        </mxCell>
        <mxCell id="KPoirZavF00LHYwzV-F3-17" value="小组名称、小组职位" style="shape=parallelogram;perimeter=parallelogramPerimeter;whiteSpace=wrap;html=1;fixedSize=1;rounded=0;" vertex="1" parent="1">
          <mxGeometry x="455" y="540" width="130" height="60" as="geometry" />
        </mxCell>
        <mxCell id="KPoirZavF00LHYwzV-F3-21" value="等待老师审核" style="whiteSpace=wrap;html=1;rounded=0;" vertex="1" parent="1">
          <mxGeometry x="294" y="670" width="120" height="60" as="geometry" />
        </mxCell>
        <mxCell id="KPoirZavF00LHYwzV-F3-33" value="输入未创建/创建失败/错误的小组ID" style="rounded=1;whiteSpace=wrap;html=1;" vertex="1" parent="1">
          <mxGeometry x="250" y="810" width="280" height="50" as="geometry" />
        </mxCell>
        <mxCell id="KPoirZavF00LHYwzV-F3-35" value="输入不属于该项目的小组ID" style="rounded=1;whiteSpace=wrap;html=1;" vertex="1" parent="1">
          <mxGeometry x="250" y="900" width="280" height="50" as="geometry" />
        </mxCell>
        <mxCell id="KPoirZavF00LHYwzV-F3-37" value="已经加入某项目再次创建小组" style="rounded=1;whiteSpace=wrap;html=1;" vertex="1" parent="1">
          <mxGeometry x="250" y="990" width="280" height="50" as="geometry" />
        </mxCell>
        <mxCell id="KPoirZavF00LHYwzV-F3-43" value="已经加入某项目再次加入小组&amp;nbsp; ？" style="rounded=1;whiteSpace=wrap;html=1;fillColor=#f8cecc;strokeColor=#b85450;" vertex="1" parent="1">
          <mxGeometry x="250" y="1080" width="280" height="50" as="geometry" />
        </mxCell>
        <mxCell id="KPoirZavF00LHYwzV-F3-52" style="edgeStyle=orthogonalEdgeStyle;rounded=0;orthogonalLoop=1;jettySize=auto;html=1;exitX=1;exitY=0.5;exitDx=0;exitDy=0;entryX=0;entryY=0.5;entryDx=0;entryDy=0;" edge="1" parent="1" source="KPoirZavF00LHYwzV-F3-48" target="KPoirZavF00LHYwzV-F3-33">
          <mxGeometry relative="1" as="geometry" />
        </mxCell>
        <mxCell id="KPoirZavF00LHYwzV-F3-53" style="edgeStyle=orthogonalEdgeStyle;rounded=0;orthogonalLoop=1;jettySize=auto;html=1;exitX=1;exitY=0.5;exitDx=0;exitDy=0;entryX=0;entryY=0.5;entryDx=0;entryDy=0;" edge="1" parent="1" source="KPoirZavF00LHYwzV-F3-48" target="KPoirZavF00LHYwzV-F3-35">
          <mxGeometry relative="1" as="geometry" />
        </mxCell>
        <mxCell id="KPoirZavF00LHYwzV-F3-54" style="edgeStyle=orthogonalEdgeStyle;rounded=0;orthogonalLoop=1;jettySize=auto;html=1;exitX=1;exitY=0.5;exitDx=0;exitDy=0;entryX=0;entryY=0.5;entryDx=0;entryDy=0;" edge="1" parent="1" source="KPoirZavF00LHYwzV-F3-48" target="KPoirZavF00LHYwzV-F3-37">
          <mxGeometry relative="1" as="geometry" />
        </mxCell>
        <mxCell id="KPoirZavF00LHYwzV-F3-55" style="edgeStyle=orthogonalEdgeStyle;rounded=0;orthogonalLoop=1;jettySize=auto;html=1;exitX=1;exitY=0.5;exitDx=0;exitDy=0;entryX=0;entryY=0.5;entryDx=0;entryDy=0;" edge="1" parent="1" source="KPoirZavF00LHYwzV-F3-48" target="KPoirZavF00LHYwzV-F3-43">
          <mxGeometry relative="1" as="geometry" />
        </mxCell>
        <mxCell id="KPoirZavF00LHYwzV-F3-48" value="创建失败" style="rounded=1;whiteSpace=wrap;html=1;" vertex="1" parent="1">
          <mxGeometry x="70" y="942.5" width="80" height="50" as="geometry" />
        </mxCell>
      </root>
    </mxGraphModel>
  </diagram>
</mxfile>
